Land_normalized_Motion_pl02
version=1
nRows=12
nColumns=43
inDegrees=yes
endheader
time		pelvis_tilt		pelvis_list		pelvis_rotation		pelvis_tx		pelvis_ty		pelvis_tz		hip_flexion_r		hip_adduction_r		hip_rotation_r		knee_angle_r		ankle_angle_r		subtalar_angle_r		mtp_angle_r		hip_flexion_l		hip_adduction_l		hip_rotation_l		knee_angle_l		ankle_angle_l		subtalar_angle_l		mtp_angle_l		lumbar_extension		lumbar_bending		lumbar_rotation		neck_flexion		neck_lateral_bending		neck_rotation		arm_flex_r		arm_add_r		arm_rot_r		elbow_flex_r		pro_sup_r		wrist_flex_r		wrist_dev_r		hand_finger_flex_r		arm_flex_l		arm_add_l		arm_rot_l		elbow_flex_l		pro_sup_l		wrist_flex_l		wrist_dev_l		hand_finger_flex_l		
0.771667		2.972843		8.003934		86.107325		0.017773		0.662968		0.544226		62.933947		1.231596		-5.769189		-99.146476		21.812785		-10.537482		-1.149587		61.557832		-7.790727		0.855993		-99.511459		23.369703		4.280411		13.644930		-50.494628		3.542664		5.515166		12.375309		-3.606380		-1.943043		-8.039706		-20.128643		-32.121720		64.429131		118.740530		17.241849		-17.307077		-14.753056		-15.602716		-21.277945		-12.243037		58.460240		128.329385		-33.963616		-11.624841		-21.733337		
0.774444		2.889434		8.185903		86.386463		0.017000		0.655045		0.542060		64.014953		0.907808		-5.574138		-101.090561		21.267764		-10.241848		1.246081		62.642012		-7.398482		0.948584		-101.393000		22.898044		3.525282		14.176610		-51.111192		3.665413		5.534477		13.168149		-3.686336		-2.184611		-6.291134		-20.599009		-31.206032		65.239870		119.815584		16.818978		-17.764887		-13.839402		-13.504392		-21.811108		-11.047232		58.833172		128.615771		-35.020420		-11.213799		-20.981822		
0.777222		2.898025		8.574384		86.556996		0.016563		0.647824		0.539909		64.795642		0.771955		-5.368369		-102.898750		20.896614		-9.947057		1.964354		63.464539		-7.211049		1.115341		-103.225009		22.544900		3.297463		14.346370		-51.953323		3.761479		5.611825		13.891670		-3.727072		-2.327439		-4.397341		-21.164603		-30.088145		65.974931		120.259978		16.847174		-17.892947		-13.510343		-11.435608		-22.287389		-10.225074		59.252067		128.936603		-35.106443		-11.310639		-20.685301		
0.780000		2.942837		9.026543		86.716698		0.016099		0.640931		0.537794		65.454938		0.665411		-5.146289		-104.621119		20.592885		-9.530736		2.081241		64.227837		-7.046025		1.354566		-105.008716		22.095158		3.239727		14.395387		-52.878578		3.884114		5.717932		14.683550		-3.770866		-2.464604		-2.475573		-21.822331		-28.850640		66.732075		120.527570		16.999238		-17.878085		-13.426760		-9.336801		-22.698046		-9.506550		59.682762		129.286508		-34.936213		-11.536998		-20.622124		
0.782778		3.051976		9.497696		87.072399		0.015227		0.634197		0.535683		66.019411		0.363881		-4.987061		-106.283480		20.445685		-8.490473		2.799671		65.036907		-6.673524		1.778310		-106.734060		21.279722		2.974651		14.840229		-53.811268		4.247569		5.768984		15.426263		-3.972777		-2.633803		-0.625184		-22.495700		-27.552274		67.653522		120.903997		16.789912		-17.771367		-13.474071		-7.123424		-23.076518		-8.564877		59.968728		129.818834		-35.355909		-11.429444		-20.748243		
0.785556		3.067354		10.001530		87.200282		0.015010		0.627739		0.533654		66.565600		0.315386		-4.656620		-107.856193		20.064184		-8.051740		3.946707		65.688289		-6.568699		2.022889		-108.347700		20.728042		3.128318		15.822733		-54.757092		4.279268		5.975705		16.150291		-3.915220		-2.818972		1.321112		-23.157430		-26.350658		68.301058		121.071238		16.971343		-17.789431		-13.372779		-4.846950		-23.589767		-7.535248		60.366823		130.373917		-35.330158		-11.394576		-20.600848		
0.788333		3.081033		10.569967		87.348650		0.014504		0.621565		0.531681		67.008092		0.165102		-4.287597		-109.351966		19.357772		-7.273460		7.509435		66.279862		-6.400487		2.329817		-109.894694		19.700637		3.319077		18.920612		-55.765083		4.369760		6.234721		16.819366		-3.999875		-3.113715		3.174076		-23.886494		-25.184438		69.088706		121.086651		16.974996		-17.802365		-13.312788		-2.393112		-24.116765		-6.059758		60.642875		131.292710		-35.996229		-10.679197		-20.374862		
0.791111		3.165035		11.081798		87.541668		0.014030		0.615333		0.529711		67.466473		0.019574		-4.020668		-110.821073		19.219888		-6.274579		7.954305		66.924767		-6.235914		2.762830		-111.431678		19.184608		3.882037		19.282929		-56.696195		4.548981		6.378832		17.469465		-3.996128		-3.245939		5.221927		-24.610571		-23.838866		69.783663		121.301274		17.131145		-17.834301		-13.243453		-0.173087		-24.505461		-5.216060		61.015281		131.626566		-35.828952		-11.027430		-20.286432		
0.793889		3.228481		11.586921		87.724229		0.013474		0.609213		0.527786		67.928090		-0.159110		-3.738173		-112.255831		19.032705		-5.199250		8.521308		67.546460		-6.055647		3.198260		-112.912359		18.633176		4.545998		19.769915		-57.598764		4.716627		6.535798		18.068144		-4.015214		-3.370452		7.295346		-25.344815		-22.505805		70.450268		121.446390		17.259587		-17.910138		-13.186614		2.093954		-24.881056		-4.262439		61.352937		131.961952		-35.755727		-11.300612		-20.228060		
0.796667		3.219080		12.045120		87.835338		0.013125		0.603064		0.525919		68.484034		-0.266850		-3.363274		-113.658568		18.353611		-4.438820		11.208092		68.179183		-5.928238		3.570068		-114.302360		17.802804		5.202899		22.415526		-58.410896		4.747237		6.801964		18.574114		-4.011741		-3.588801		9.242926		-26.136667		-21.182551		71.079716		121.035292		17.145107		-17.960305		-13.011736		4.592309		-25.403894		-2.636588		61.558104		132.140492		-36.372980		-11.056633		-20.056973		
0.799444		3.182393		12.459405		87.961216		0.012770		0.596903		0.524063		69.075456		-0.400143		-3.034467		-115.049697		17.884538		-3.820714		12.577687		68.816962		-5.786199		3.891521		-115.656748		17.248639		5.828985		23.772655		-59.162351		4.765001		6.967041		19.104104		-3.919574		-3.778074		11.316728		-26.862909		-19.865854		71.678465		120.948153		17.271135		-18.044666		-12.826828		6.956521		-25.847713		-1.424561		61.857000		132.453562		-36.432502		-11.173820		-19.870351		
0.802222		3.112858		12.831766		88.175367		0.012186		0.590624		0.522099		69.693372		-0.673927		-2.677366		-116.472705		17.718876		-2.640453		13.178096		69.477329		-5.540487		4.323805		-116.995446		16.989076		7.288587		24.412153		-59.783747		4.856399		6.987854		19.392490		-3.850964		-3.913927		13.551442		-27.532143		-18.426063		72.026008		120.948120		17.311287		-18.341391		-12.692693		9.254992		-26.207436		-0.333722		62.068044		132.795047		-36.560366		-11.330754		-19.859399		
